# AST/ASF file generated using VICON BodyLanguage
# -----------------------------------------------
:version 1.10
:name VICON
:units
  mass 1.0
  length 0.45
  angle deg
:documentation
   .ast/.asf automatically generated from VICON data using
   VICON BodyBuilder and BodyLanguage model FoxedUp or BRILLIANT.MOD
:root
   order TX TY TZ RX RY RZ
   axis XYZ
   position 0 0 0  
   orientation 0 0 0 
:bonedata
  begin
     id 1 
     name lhipjoint
     direction 0.584852 -0.759097 0.285867 
     length 2.43633 
     axis 0 0 0  XYZ
  end
  begin
     id 2 
     name lfemur
     direction 0.34202 -0.939693 0  
     length 7.14704  
     axis 0 0 20  XYZ
    dof rx ry rz
    limits (-160.0 20.0)
           (-70.0 70.0)
           (-60.0 70.0)
  end
  begin
     id 3 
     name ltibia
     direction 0.342022 -0.939692 0   
     length 7.68483   
     axis 0 0 20   XYZ
    dof rx
    limits (-10.0 170.0)
  end
  begin
     id 4 
     name lfoot
     direction 0.0999605 -0.274639 0.956337   
     length 2.40452   
     axis -90 7.62852e-016 20   XYZ
    dof rx rz
    limits (-45.0 90.0)
           (-70.0 20.0)
  end
  begin
     id 5 
     name ltoes
     direction 1.53468e-011 -4.21881e-011 1   
     length 1.19837   
     axis -90 7.62852e-016 20   XYZ
    dof rx
    limits (-90.0 20.0)
  end
  begin
     id 6 
     name rhipjoint
     direction -0.569886 -0.769002 0.289597   
     length 2.40495  
     axis 0 0 0  XYZ 
  end
  begin
     id 7 
     name rfemur
     direction -0.34202 -0.939693 0   
     length 7.45086   
     axis 0 0 -20   XYZ
    dof rx ry rz
    limits (-160.0 20.0)
           (-70.0 70.0)
           (-70.0 60.0)
  end
  begin
     id 8 
     name rtibia
     direction -0.34202 -0.939693 0   
     length 7.76831   
     axis 0 0 -20   XYZ
    dof rx
    limits (-10.0 170.0)
 end
 begin
     id 9 
     name rfoot
     direction -0.0798572 -0.219406 0.97236   
     length 2.35911  
     axis -90 -7.62852e-016 -20   XYZ
    dof rx rz
    limits (-45.0 90.0)
           (-20.0 70.0)
  end
  begin
     id 10 
     name rtoes
     direction -1.53469e-011 -4.21728e-011 1   
     length 1.18261   
     axis -90 -7.62852e-016 -20   XYZ
    dof rx
    limits (-90.0 20.0)
  end
  begin
     id 11 
     name lowerback
     direction 0.0242088 0.999437 0.0232389   
     length 2.1561   
     axis 0 0 0   XYZ
    dof rx ry rz
    limits (-20.0 45.0)
           (-30.0 30.0)
           (-30.0 30.0)
  end
  begin
     id 12 
     name upperback
     direction -0.0356893 0.999013 -0.0264323   
     length 2.14431   
     axis 0 0 0   XYZ
    dof rx ry rz
    limits (-20.0 45.0)
           (-30.0 30.0)
           (-30.0 30.0)
  end
  begin
     id 13 
     name thorax
     direction -0.0472163 0.998194 -0.0371284   
     length 2.16169   
     axis 0 0 0   XYZ
    dof rx ry rz
    limits (-20.0 45.0)
           (-30.0 30.0)
           (-30.0 30.0)
  end
  begin
     id 14 
     name lowerneck
     direction 0.00863244 0.999921 0.00911972   
     length 1.58651   
     axis 0 0 0   XYZ
    dof rx ry rz
    limits (-20.0 45.0)
           (-30.0 30.0)
           (-30.0 30.0)
  end
  begin
     id 15 
     name upperneck
     direction 0.149523 0.979068 -0.138086   
     length 1.57486   
     axis 0 0 0   XYZ
    dof rx ry rz
    limits (-20.0 45.0)
           (-30.0 30.0)
           (-30.0 30.0)
  end
  begin
     id 16
     name head
     direction 0.0445219 0.997708 -0.0509576  
     length 1.6019  
     axis 0 0 0   XYZ
    dof rx ry rz
    limits (-20.0 45.0)
           (-30.0 30.0)
           (-30.0 30.0)
  end
  begin
     id 17 
     name lclavicle
     direction 0.911271 0.381667 -0.154644  
     length 3.80848  
     axis 0 0 0   XYZ
    dof ry rz
    limits (-20.0 10.0)
           (0.0 20.0)
  end
  begin
     id 18 
     name lhumerus
     direction 1 -4.49003e-011 2.1308e-027   
     length 5.19069   
     axis 180 -30 -90   XYZ
    dof rx ry rz
    limits (-60.0 90.0)
           (-90.0 90.0)
           (-90.0 90.0)
  end
  begin
     id 19
     name lradius
     direction 1 -4.48914e-011 4.01554e-027   
     length 3.30016   
     axis 180 -30 -90   XYZ
    dof rx
    limits (-10.0 170.0)
  end
  begin
     id 20
     name lwrist
     direction 1 -4.49003e-011 1.1934e-026   
     length 1.65008   
     axis -8.46377e-015 90 90   XYZ
    dof ry
    limits (-180.0 0.0)
 end
  begin
     id 21 
     name lhand
     direction 1 -4.49034e-011 2.38659e-026   
     length 0.707698   
     axis -1.52313e-014 90 90   XYZ
    dof rx rz
    limits (-90.0 90.0)
           (-45.0 45.0)
  end
  begin
     id 22 
     name lfingers
     direction 1 -4.48691e-011 4.77775e-026   
     length 0.570564   
     axis -3.04623e-014 90 90   XYZ
    dof rx
    limits (0.0 90.0)
  end
  begin
     id 23
     name lthumb
     direction 0.707107 -6.34832e-011 0.707107   
     length 0.819219   
     axis -90 45 -1.62303e-014   XYZ
    dof rx rz
    limits (-45.0 45.0)
           (-45.0 45.0)
  end
  begin
     id 24 
     name rclavicle
     direction -0.815579 0.573708 -0.0754329   
     length 3.54371  
     axis 0 0 0   XYZ 
    dof ry rz
    limits (-10.0 20.0)
           (-20.0 0.0)
  end
  begin
     id 25 
     name rhumerus
     direction -1 -4.48956e-011 3.05351e-028  
     length 5.23924   
     axis 180 30 90   XYZ
    dof rx ry rz
    limits (-90.0 60.0)
           (-90.0 90.0)
           (-90.0 90.0)
  end
  begin
     id 26 
     name rradius
     direction -1 -4.49013e-011 3.53849e-027   
     length 3.32953   
     axis 180 30 90   XYZ
    dof rx
    limits (-10.0 170.0)
  end
  begin
     id 27 
     name rwrist
     direction -1 -4.48901e-011 1.19374e-026   
     length 1.66477   
     axis -8.46377e-015 -90 -90   XYZ
    dof ry
    limits (-180.0 0.0)
  end
  begin
     id 28
     name rhand
     direction -1 -4.48877e-011 2.38764e-026   
     length 0.607414   
     axis -1.52313e-014 -90 -90   XYZ
    dof rx rz
    limits (-90.0 90.0)
           (-45.0 45.0)
  end
  begin
     id 29
     name rfingers
     direction -1 -4.48882e-011 4.77521e-026   
     length 0.489712   
     axis -3.04623e-014 -90 -90   XYZ
    dof rx
    limits (0.0 90.0)
  end
  begin
     id 30
     name rthumb
     direction -0.707107 -6.34974e-011 0.707107   
     length 0.703132   
     axis -90 -45 1.62303e-014   XYZ
    dof rx rz
    limits (-45.0 45.0)
           (-45.0 45.0)
  end
:hierarchy
  begin
    root lhipjoint rhipjoint lowerback
    lhipjoint lfemur
    lfemur ltibia
    ltibia lfoot
    lfoot ltoes
    rhipjoint rfemur
    rfemur rtibia
    rtibia rfoot
    rfoot rtoes
    lowerback upperback
    upperback thorax
    thorax lowerneck lclavicle rclavicle
    lowerneck upperneck
    upperneck head
    lclavicle lhumerus
    lhumerus lradius
    lradius lwrist
    lwrist lhand lthumb
    lhand lfingers
    rclavicle rhumerus
    rhumerus rradius
    rradius rwrist
    rwrist rhand rthumb
    rhand rfingers
  end

#!OML:ASF E:\VariousWalksJay\Project 1\Capture day 1\Session 1\Actor2.ASF
:FULLY-SPECIFIED
:DEGREES
1460
root -5.65238 17.2635 13.6836 186.833 36.6885 -175.508
lowerback -4.88329 -3.5119 2.47236
upperback -3.53204 -4.63109 0.00909554
thorax -1.10087 -2.30391 -1.54012
lowerneck 1.84813 -5.14626 -2.80432
upperneck 22.7322 -6.87313 6.83951
head 6.95729 -2.45095 2.38924
rclavicle 3.15571e-014 0
rhumerus -30.4549 40.566 -77.0311
rradius 74.0503
rwrist -3.62614
rhand -11.9859 -5.31206
rfingers 7.12502
rthumb 14.0706 -34.8157
lclavicle 3.15571e-014 0
lhumerus -17.3044 -51.36 62.3005
lradius 68.0165
lwrist 13.2207
lhand -16.9225 -11.0071
lfingers 7.12502
lthumb 9.31015 18.7673
rfemur -25.9109 -3.84339 24.9759
rtibia 37.3084
rfoot -21.9335 -21.2777
rtoes -8.7651
lfemur -10.7093 0.0667899 -15.6993
ltibia 28.7596
lfoot -29.1232 3.92698
ltoes -8.15285
1461
root -5.6446 17.2609 13.6632 186.796 37.1843 -175.431
lowerback -4.81248 -3.78338 2.36997
upperback -3.78456 -4.96866 0.312258
thorax -1.38015 -2.46642 -1.1685
lowerneck 1.90568 -4.83104 -3.35572
upperneck 22.5789 -6.43053 6.77785
head 6.88817 -2.30903 2.48661
rclavicle 9.89451e-014 1.90833e-014
rhumerus -30.7505 41.2392 -77.2378
rradius 73.9909
rwrist -3.53831
rhand -12.0144 -5.25908
rfingers 7.12502
rthumb 14.0431 -34.7647
lclavicle 9.89451e-014 1.90833e-014
lhumerus -18.7174 -50.5111 63.642
lradius 68.1353
lwrist 13.1077
lhand -16.929 -11.0483
lfingers 7.12502
lthumb 9.30384 18.7264
rfemur -25.7698 -3.93034 25.0323
rtibia 37.298
rfoot -21.293 -20.9594
rtoes -8.77294
lfemur -10.4109 -0.145902 -15.7206
ltibia 28.6654
lfoot -28.9502 3.76381
ltoes -7.58034
1462
root -5.6347 17.258 13.644 186.817 37.8772 -175.411
lowerback -4.89813 -3.74559 2.431
upperback -3.92034 -4.9127 0.263929
thorax -1.48051 -2.43916 -1.25004
lowerneck 1.66795 -4.75064 -3.25852
upperneck 22.3676 -6.35624 6.78359
head 6.85253 -2.28132 2.46794
rclavicle -6.80837e-015 2.78299e-015
rhumerus -31.1718 40.9999 -77.6598
rradius 73.9997
rwrist -3.41993
rhand -12.029 -5.28082
rfingers 7.12502
rthumb 14.029 -34.7874
lclavicle -6.80837e-015 2.78299e-015
lhumerus -19.0173 -50.4227 63.9883
lradius 68.1901
lwrist 13.1608
lhand -17.0295 -11.0479
lfingers 7.12502
lthumb 9.20691 18.7311
rfemur -25.7542 -3.83428 25.0178
rtibia 37.2673
rfoot -20.3384 -20.3561
rtoes -8.9986
lfemur -10.1781 -0.207158 -15.828
ltibia 28.589
lfoot -28.9569 3.90035
ltoes -7.2542
1463
root -5.62204 17.2537 13.6259 186.797 38.5626 -175.445
lowerback -4.93511 -3.69073 2.36485
upperback -4.06926 -4.82783 0.246835
thorax -1.60632 -2.39453 -1.22499
lowerneck 1.3262 -4.68583 -3.15819
upperneck 22.197 -6.30004 6.7527
head 6.84839 -2.26229 2.43395
rclavicle 2.73329e-014 -1.07344e-014
rhumerus -31.6429 40.7252 -78.0271
rradius 74.054
rwrist -3.32087
rhand -12.0084 -5.281
rfingers 7.12502
rthumb 14.0489 -34.7862
lclavicle 2.73329e-014 -1.07344e-014
lhumerus -19.3943 -50.2884 64.4551
lradius 68.3021
lwrist 13.1249
lhand -16.9703 -11.186
lfingers 7.12502
lthumb 9.26401 18.5905
rfemur -25.7289 -3.64712 24.9394
rtibia 37.2291
rfoot -19.3885 -19.6259
rtoes -9.45916
lfemur -9.92395 -0.115177 -15.9674
ltibia 28.5031
lfoot -28.9416 3.99303
ltoes -6.82966
1464
root -5.61041 17.2484 13.6073 186.826 39.1862 -175.396
lowerback -4.98274 -3.6349 2.45467
upperback -4.20381 -4.74799 0.199531
thorax -1.72782 -2.35644 -1.31827
lowerneck 0.992425 -4.62163 -3.01138
upperneck 21.9182 -6.255 6.7542
head 6.80797 -2.24814 2.40123
rclavicle -2.52457e-014 -5.1684e-015
rhumerus -32.1257 40.4425 -78.446
rradius 74.1471
rwrist -3.26357
rhand -12.0581 -5.31765
rfingers 7.12502
rthumb 14.001 -34.8261
lclavicle -2.52457e-014 -5.1684e-015
lhumerus -19.7571 -50.2109 64.8349
lradius 68.4483
lwrist 13.1711
lhand -16.9781 -11.2664
lfingers 7.12502
lthumb 9.25644 18.5104
rfemur -25.7126 -3.50664 24.9336
rtibia 37.1999
rfoot -18.5537 -18.8978
rtoes -9.81736
lfemur -9.69099 0.0326845 -16.022
ltibia 28.4347
lfoot -28.9455 4.15895
ltoes -6.26131
1465
root -5.59914 17.2437 13.5882 186.793 39.7129 -175.482
lowerback -5.02611 -3.67015 2.45513
upperback -4.36782 -4.78412 0.161572
thorax -1.87863 -2.37401 -1.35433
lowerneck 0.681889 -4.48496 -2.96201
upperneck 21.5811 -6.10905 6.76716
head 6.74268 -2.1968 2.39483
rclavicle 7.07673e-014 3.57812e-015
rhumerus -32.4858 40.2277 -78.91
rradius 74.1117
rwrist -3.16749
rhand -11.9896 -5.31532
rfingers 7.12502
rthumb 14.067 -34.8192
lclavicle 7.07673e-014 3.57812e-015
lhumerus -20.2989 -49.994 65.305
lradius 68.6412
lwrist 13.1805
lhand -17.0387 -11.2217
lfingers 7.12502
lthumb 9.19804 18.5577
rfemur -25.7309 -3.5078 24.8235
rtibia 37.214
rfoot -17.9942 -18.2508
rtoes -9.87188
lfemur -9.49966 0.211516 -16.1822
ltibia 28.3734
lfoot -28.9536 4.40155
ltoes -5.99213
1466
root -5.58589 17.2387 13.5691 186.833 40.2687 -175.4
lowerback -5.0203 -3.61811 2.51485
upperback -4.52309 -4.70491 0.173824
thorax -2.04357 -2.33498 -1.36595
lowerneck 0.442435 -4.43523 -2.9014
upperneck 21.1112 -6.07868 6.76753
head 6.62836 -2.20751 2.3759
rclavicle 6.95249e-014 1.03368e-014
rhumerus -32.9527 39.9272 -79.2604
rradius 74.1552
rwrist -3.14806
rhand -12.0174 -5.23929
rfingers 7.12502
rthumb 14.0402 -34.7451
lclavicle 6.95249e-014 1.03368e-014
lhumerus -20.7628 -49.8045 65.8788
lradius 68.7545
lwrist 13.0691
lhand -16.9742 -11.4091
lfingers 7.12502
lthumb 9.26026 18.3675
rfemur -25.6901 -3.43763 24.859
rtibia 37.2589
rfoot -17.6515 -17.7247
rtoes -9.52509
lfemur -9.27172 0.484772 -16.1839
ltibia 28.3257
lfoot -28.9728 4.52723
ltoes -5.68168
1467
root -5.57061 17.2349 13.5519 186.873 40.8476 -175.437
lowerback -5.02196 -3.56813 2.50765
upperback -4.74288 -4.62178 0.140575
thorax -2.26946 -2.29244 -1.38526
lowerneck 0.244749 -4.38787 -2.86611
upperneck 20.6208 -6.05587 6.82433
head 6.50365 -2.21981 2.38019
rclavicle -6.96243e-014 9.14409e-015
rhumerus -33.4457 39.6393 -79.7482
rradius 74.1218
rwrist -3.09154
rhand -12.0725 -5.29267
rfingers 7.12502
rthumb 13.9871 -34.8021
lclavicle -6.96243e-014 9.14409e-015
lhumerus -21.3909 -49.5575 66.5415
lradius 68.8388
lwrist 12.8619
lhand -16.9931 -11.4794
lfingers 7.12502
lthumb 9.24198 18.298
rfemur -25.7438 -3.38155 24.8113
rtibia 37.3457
rfoot -17.5174 -17.218
rtoes -9.23991
lfemur -9.12742 0.813 -16.2704
ltibia 28.2727
lfoot -28.953 4.59083
ltoes -5.50613
1468
root -5.5546 17.2311 13.5326 186.914 41.3693 -175.42
lowerback -5.12054 -3.51332 2.57095
upperback -4.86401 -4.54325 0.0982574
thorax -2.34598 -2.254 -1.46352
lowerneck 0.0437956 -4.33882 -2.87465
upperneck 20.0123 -6.04021 6.95635
head 6.34617 -2.23917 2.41478
rclavicle 3.19049e-014 1.07344e-014
rhumerus -33.7969 39.3047 -80.1451
rradius 74.0891
rwrist -3.02193
rhand -12.0742 -5.23997
rfingers 7.12502
rthumb 13.9855 -34.7495
lclavicle 3.19049e-014 1.07344e-014
lhumerus -21.8337 -49.4139 67.0256
lradius 69.0169
lwrist 12.7867
lhand -17.1106 -11.3329
lfingers 7.12502
lthumb 9.12863 18.4495
rfemur -25.7584 -3.38699 24.8081
rtibia 37.4482
rfoot -17.5522 -16.6595
rtoes -8.93898
lfemur -8.95141 1.04864 -16.3144
ltibia 28.228
lfoot -28.9801 4.70321
ltoes -5.33459
1469
root -5.53995 17.227 13.5169 186.966 41.712 -175.444
lowerback -5.13184 -3.54104 2.60911
upperback -5.06318 -4.56577 0.0739856
thorax -2.55342 -2.26538 -1.50278
lowerneck -0.108703 -4.27151 -2.97001
upperneck 19.4 -6.00325 7.18251
head 6.18398 -2.24689 2.49669
rclavicle 4.29375e-014 5.96354e-015
rhumerus -34.2502 39.1403 -80.6193
rradius 74.0734
rwrist -3.04121
rhand -12.2886 -5.34803
rfingers 7.12502
rthumb 13.7789 -34.8717
lclavicle 4.29375e-014 5.96354e-015
lhumerus -22.5076 -49.1146 67.67
lradius 69.1392
lwrist 12.7011
lhand -17.2022 -11.4036
lfingers 7.12502
lthumb 9.04026 18.3826
rfemur -25.8388 -3.52396 24.8022
rtibia 37.5589
rfoot -17.5327 -16.2053
rtoes -9.15811
lfemur -8.85853 1.24998 -16.3588
ltibia 28.1751
lfoot -28.9865 4.70868
ltoes -5.04866
1470
root -5.52492 17.2239 13.5028 187.054 42.0077 -175.438
lowerback -5.15583 -3.55369 2.56161
upperback -5.22945 -4.56727 0.104406
thorax -2.70685 -2.26226 -1.44053
lowerneck -0.376092 -4.22938 -3.01644
upperneck 18.803 -5.99081 7.3294
head 6.04526 -2.26679 2.54126
rclavicle 1.03766e-013 3.89618e-014
rhumerus -34.5472 38.8974 -80.9167
rradius 73.9694
rwrist -2.893
rhand -12.4311 -5.3638
rfingers 7.12502
rthumb 13.6416 -34.8968
lclavicle 1.03766e-013 3.89618e-014
lhumerus -23.0222 -48.7614 68.3282
lradius 69.2119
lwrist 12.6557
lhand -17.1778 -11.4785
lfingers 7.12502
lthumb 9.06381 18.3068
rfemur -25.9326 -3.57387 24.8268
rtibia 37.6645
rfoot -17.5612 -15.9095
rtoes -8.9901
lfemur -8.79807 1.45735 -16.3659
ltibia 28.123
lfoot -28.9895 4.7277
ltoes -4.87264
1471
root -5.5082 17.2214 13.4813 187.153 42.3349 -175.475
lowerback -5.31501 -3.52988 2.68472
upperback -5.38453 -4.52961 0.00205461
thorax -2.79752 -2.24652 -1.61706
lowerneck -0.5066 -4.16644 -2.97988
upperneck 18.087 -5.95995 7.59433
head 5.84604 -2.26806 2.61311
rclavicle 1.43125e-014 2.3059e-014
rhumerus -34.8919 38.5487 -81.3989
rradius 73.8449
rwrist -2.6719
rhand -12.5087 -5.33743
rfingers 7.12502
rthumb 13.5668 -34.8754
lclavicle 1.43125e-014 2.3059e-014
lhumerus -23.541 -48.5354 68.8338
lradius 69.2658
lwrist 12.637
lhand -17.1252 -11.53
lfingers 7.12502
lthumb 9.11449 18.253
rfemur -26.053 -3.64972 24.7929
rtibia 37.7561
rfoot -17.5525 -15.604
rtoes -9.11836
lfemur -8.73719 1.592 -16.4608
ltibia 28.0605
lfoot -29.0741 4.87433
ltoes -4.77618
1472
root -5.49138 17.2187 13.4682 187.236 42.5181 -175.504
lowerback -5.38604 -3.60995 2.59314
upperback -5.53391 -4.62019 0.071746
thorax -2.90475 -2.28481 -1.49578
lowerneck -0.648966 -4.04857 -3.06271
upperneck 17.3504 -5.82697 7.73061
head 5.6375 -2.23947 2.66928
rclavicle 1.95455e-013 5.60573e-014
rhumerus -35.1051 38.5163 -81.6586
rradius 73.7249
rwrist -2.52663
rhand -12.5734 -5.30901
rfingers 7.12502
rthumb 13.5044 -34.8512
lclavicle 1.95455e-013 5.60573e-014
lhumerus -24.1639 -48.0537 69.5699
lradius 69.3041
lwrist 12.6508
lhand -17.1867 -11.5197
lfingers 7.12502
lthumb 9.05516 18.2659
rfemur -26.1634 -3.72066 24.8007
rtibia 37.8495
rfoot -17.5408 -15.4039
rtoes -9.0968
lfemur -8.7027 1.76544 -16.4822
ltibia 27.9879
lfoot -29.0739 4.85692
ltoes -4.67697
1473
root -5.47521 17.2173 13.4496 187.246 42.7179 -175.545
lowerback -5.42868 -3.60032 2.61516
upperback -5.64076 -4.59997 0.0286086
thorax -2.99743 -2.27486 -1.55041
lowerneck -0.729339 -3.98411 -2.9739
upperneck 16.5098 -5.76933 7.89616
head 5.38769 -2.23714 2.70285
rclavicle 1.39149e-014 0
rhumerus -35.32 38.1746 -81.9678
rradius 73.5341
rwrist -2.33084
rhand -12.6155 -5.26915
rfingers 7.12502
rthumb 13.4638 -34.814
lclavicle 1.39149e-014 0
lhumerus -24.6359 -47.7996 70.1658
lradius 69.3433
lwrist 12.6766
lhand -17.2016 -11.4906
lfingers 7.12502
lthumb 9.04077 18.2956
rfemur -26.1693 -3.76024 24.7641
rtibia 37.9153
rfoot -17.5444 -15.2147
rtoes -9.1695
lfemur -8.55311 1.79041 -16.557
ltibia 27.8722
lfoot -29.1143 5.02837
ltoes -4.59878
1474
root -5.45796 17.2155 13.4309 187.242 42.9066 -175.616
lowerback -5.45602 -3.63553 2.5051
upperback -5.76121 -4.63242 0.0788675
thorax -3.09591 -2.28424 -1.43595
lowerneck -0.747454 -3.89933 -2.97054
upperneck 15.6555 -5.66326 7.97768
head 5.12191 -2.22395 2.72828
rclavicle 2.52457e-014 7.95139e-016
rhumerus -35.5536 38.13 -82.1967
rradius 73.4307
rwrist -2.30927
rhand -12.7748 -5.34684
rfingers 7.12502
rthumb 13.3103 -34.9018
lclavicle 2.52457e-014 7.95139e-016
lhumerus -25.1946 -47.3602 70.9265
lradius 69.3054
lwrist 12.6393
lhand -17.1077 -11.5763
lfingers 7.12502
lthumb 9.1314 18.206
rfemur -26.1697 -3.72807 24.696
rtibia 37.9786
rfoot -17.5555 -15.0686
rtoes -9.10605
lfemur -8.4172 1.88681 -16.6507
ltibia 27.7622
lfoot -29.1486 5.17014
ltoes -4.59352
